<svg xmlns="http://www.w3.org/2000/svg" width="512" height="512" fill="none"><g clip-path="url(#a)"><rect width="512" height="512" fill="#30049f" rx="256"/><path fill="#30049f" d="M0 0h512v512H0z"/><path fill="#9cbef8" d="M193.728 284.999V166.953h41.357v118.046c0 11.501-2.639 21.466-7.917 29.896-5.199 8.429-12.289 14.967-21.27 19.615-8.901 4.569-18.906 6.853-30.013 6.853-11.502 0-21.742-1.93-30.723-5.79-8.902-3.86-15.913-9.807-21.033-17.843-5.042-8.035-7.563-18.276-7.563-30.722h41.594c0 5.829.67 10.398 2.009 13.707 1.339 3.23 3.309 5.514 5.908 6.853 2.679 1.261 5.948 1.891 9.808 1.891 3.781 0 6.971-.945 9.571-2.836 2.678-1.969 4.727-4.766 6.145-8.39 1.418-3.702 2.127-8.114 2.127-13.234Zm156.331 8.272c0-2.679-.394-5.082-1.182-7.209-.788-2.205-2.245-4.253-4.372-6.144s-5.199-3.781-9.217-5.672c-3.939-1.969-9.138-4.017-15.598-6.144a233.2 233.2 0 0 1-21.86-8.508c-7.011-3.23-13.274-6.972-18.788-11.226-5.514-4.333-9.886-9.374-13.116-15.125-3.23-5.829-4.845-12.604-4.845-20.324 0-7.405 1.654-14.062 4.963-19.97 3.309-5.987 7.917-11.068 13.825-15.243 5.987-4.254 12.998-7.484 21.033-9.689 8.036-2.285 16.819-3.427 26.351-3.427 12.604 0 23.712 2.206 33.322 6.617 9.69 4.333 17.252 10.517 22.688 18.552 5.514 7.956 8.271 17.37 8.271 28.241h-41.239c0-4.333-.906-8.153-2.718-11.462-1.733-3.309-4.372-5.908-7.917-7.799-3.545-1.89-7.996-2.836-13.352-2.836-5.2 0-9.572.788-13.117 2.364-3.545 1.575-6.223 3.702-8.035 6.38-1.812 2.6-2.718 5.475-2.718 8.626 0 2.6.709 4.963 2.127 7.09 1.497 2.048 3.585 3.978 6.263 5.79 2.757 1.812 6.066 3.545 9.926 5.2 3.939 1.654 8.35 3.269 13.234 4.844 9.138 2.915 17.252 6.184 24.342 9.808 7.169 3.545 13.195 7.602 18.079 12.171 4.963 4.49 8.705 9.61 11.226 15.361 2.599 5.751 3.899 12.25 3.899 19.497 0 7.72-1.497 14.574-4.49 20.561-2.994 5.987-7.287 11.068-12.88 15.243-5.593 4.096-12.289 7.208-20.088 9.335-7.799 2.127-16.503 3.19-26.114 3.19-8.823 0-17.528-1.103-26.114-3.308-8.508-2.285-16.228-5.751-23.16-10.399-6.933-4.726-12.487-10.753-16.662-18.079-4.096-7.405-6.144-16.188-6.144-26.35h41.594c0 5.041.669 9.295 2.008 12.761 1.34 3.466 3.309 6.263 5.909 8.39 2.599 2.048 5.79 3.545 9.571 4.49 3.781.867 8.114 1.3 12.998 1.3 5.278 0 9.532-.748 12.762-2.245 3.229-1.576 5.593-3.624 7.089-6.145 1.497-2.599 2.246-5.435 2.246-8.507Z"/></g><defs><clipPath id="a"><rect width="512" height="512" fill="#fff" rx="256"/></clipPath></defs></svg>